<?xml version="1.0" encoding="UTF-8" standalone="no"?>
<!-- Created with Inkscape (http://www.inkscape.org/) -->

<svg
   xmlns:dc="http://purl.org/dc/elements/1.1/"
   xmlns:cc="http://creativecommons.org/ns#"
   xmlns:rdf="http://www.w3.org/1999/02/22-rdf-syntax-ns#"
   xmlns:svg="http://www.w3.org/2000/svg"
   xmlns="http://www.w3.org/2000/svg"
   xmlns:sodipodi="http://sodipodi.sourceforge.net/DTD/sodipodi-0.dtd"
   xmlns:inkscape="http://www.inkscape.org/namespaces/inkscape"
   width="1000"
   height="1000"
   id="svg3285"
   version="1.1"
   inkscape:version="0.48.4 r9939"
   sodipodi:docname="pebble_border.svg">
  <defs
     id="defs3287">
    <clipPath
       clipPathUnits="userSpaceOnUse"
       id="clipPath2532">
      <path
         inkscape:connector-curvature="0"
         d="m 0,2210 2338,0 L 2338,0 0,0 0,2210 z"
         id="path2534" />
    </clipPath>
  </defs>
  <sodipodi:namedview
     id="base"
     pagecolor="#ffffff"
     bordercolor="#666666"
     borderopacity="1.0"
     inkscape:pageopacity="0.0"
     inkscape:pageshadow="2"
     inkscape:zoom="0.35"
     inkscape:cx="375"
     inkscape:cy="520"
     inkscape:document-units="px"
     inkscape:current-layer="layer1"
     showgrid="false"
     inkscape:window-width="1600"
     inkscape:window-height="850"
     inkscape:window-x="0"
     inkscape:window-y="0"
     inkscape:window-maximized="1" />
  <metadata
     id="metadata3290">
    <rdf:RDF>
      <cc:Work
         rdf:about="">
        <dc:format>image/svg+xml</dc:format>
        <dc:type
           rdf:resource="http://purl.org/dc/dcmitype/StillImage" />
        <dc:title />
      </cc:Work>
    </rdf:RDF>
  </metadata>
  <g
     inkscape:label="Layer 1"
     inkscape:groupmode="layer"
     id="layer1"
     transform="translate(0,-52.362183)">
    <g
       transform="matrix(1.25,0,0,-1.25,-1053.3299,2316.4941)"
       id="g2528">
      <g
         id="g2530"
         clip-path="url(#clipPath2532)">
        <g
           id="g2536"
           transform="translate(1069.8909,1354.0425)">
          <path
             inkscape:connector-curvature="0"
             d="m 0,0 c 0,-5.526 -4.468,-10.006 -9.997,-10.006 l -124.006,0 c -5.521,0 -9.997,4.472 -9.997,10.006 l 0,147.988 c 0,5.526 4.467,10.006 9.997,10.006 l 124.006,0 C -4.476,157.994 0,153.522 0,147.988 L 0,0 z m -0.82,175.438 -141.607,0 c -12.717,0 -23.027,-10.328 -23.027,-23.068 l 0,-158.215 c 0,-12.74 10.31,-23.067 23.027,-23.067 l 141.607,0 c 12.716,0 23.026,10.327 23.026,23.067 l 0,158.215 c 0,12.74 -10.31,23.068 -23.026,23.068"
             style="fill:#2c2c2c;fill-opacity:1;fill-rule:nonzero;stroke:none"
             id="path2538" />
        </g>
      </g>
    </g>
    <g
       id="g3312"
       transform="matrix(1.25,0,0,-1.25,-1053.3299,2316.4941)">
      <g
         clip-path="url(#clipPath2532)"
         id="g3314">
        <g
           transform="translate(1069.8909,1354.0425)"
           id="g3316">
          <path
             id="path3318"
             style="fill:#2c2c2c;fill-opacity:1;fill-rule:nonzero;stroke:none"
             d="m 0,0 c 0,-5.526 -4.468,-10.006 -9.997,-10.006 l -124.006,0 c -5.521,0 -9.997,4.472 -9.997,10.006 l 0,147.988 c 0,5.526 4.467,10.006 9.997,10.006 l 124.006,0 C -4.476,157.994 0,153.522 0,147.988 L 0,0 z m -0.82,175.438 -141.607,0 c -12.717,0 -23.027,-10.328 -23.027,-23.068 l 0,-158.215 c 0,-12.74 10.31,-23.067 23.027,-23.067 l 141.607,0 c 12.716,0 23.026,10.327 23.026,23.067 l 0,158.215 c 0,12.74 -10.31,23.068 -23.026,23.068"
             inkscape:connector-curvature="0" />
        </g>
      </g>
    </g>
  </g>
</svg>
